<svg width="24" height="24" viewBox="0 0 24 24" fill="none" xmlns="http://www.w3.org/2000/svg">
<g id="ep:back">
<path id="Vector" d="M5.25 11.25H20.25C20.4489 11.25 20.6397 11.329 20.7803 11.4697C20.921 11.6103 21 11.8011 21 12C21 12.1989 20.921 12.3897 20.7803 12.5303C20.6397 12.671 20.4489 12.75 20.25 12.75H5.25C5.05109 12.75 4.86032 12.671 4.71967 12.5303C4.57902 12.3897 4.5 12.1989 4.5 12C4.5 11.8011 4.57902 11.6103 4.71967 11.4697C4.86032 11.329 5.05109 11.25 5.25 11.25Z" fill="#2B2D42"/>
<path id="Vector_2" d="M5.56062 12L11.7811 18.219C11.922 18.3598 12.0011 18.5508 12.0011 18.75C12.0011 18.9491 11.922 19.1401 11.7811 19.281C11.6403 19.4218 11.4493 19.5009 11.2501 19.5009C11.051 19.5009 10.86 19.4218 10.7191 19.281L3.96912 12.531C3.89928 12.4613 3.84386 12.3785 3.80605 12.2874C3.76824 12.1963 3.74878 12.0986 3.74878 12C3.74878 11.9013 3.76824 11.8036 3.80605 11.7125C3.84386 11.6214 3.89928 11.5386 3.96912 11.469L10.7191 4.71897C10.86 4.57814 11.051 4.49902 11.2501 4.49902C11.4493 4.49902 11.6403 4.57814 11.7811 4.71897C11.922 4.8598 12.0011 5.05081 12.0011 5.24997C12.0011 5.44913 11.922 5.64014 11.7811 5.78097L5.56062 12Z" fill="#2B2D42"/>
</g>
</svg>
