<svg width="41" height="41" viewBox="0 0 41 41" fill="none" xmlns="http://www.w3.org/2000/svg">
<g id="material-symbols:add-photo-alternate-outline">
<path id="Vector" d="M8.83333 35.5C7.91667 35.5 7.13222 35.1739 6.48 34.5217C5.82778 33.8694 5.50111 33.0844 5.5 32.1667V8.83333C5.5 7.91667 5.82667 7.13222 6.48 6.48C7.13333 5.82778 7.91778 5.50111 8.83333 5.5H23.8333V8.83333H8.83333V32.1667H32.1667V17.1667H35.5V32.1667C35.5 33.0833 35.1739 33.8683 34.5217 34.5217C33.8694 35.175 33.0844 35.5011 32.1667 35.5H8.83333ZM28.8333 15.5V12.1667H25.5V8.83333H28.8333V5.5H32.1667V8.83333H35.5V12.1667H32.1667V15.5H28.8333ZM10.5 28.8333H30.5L24.25 20.5L19.25 27.1667L15.5 22.1667L10.5 28.8333Z" fill="#A2A2A2"/>
</g>
</svg>
