<svg width="48" height="48" viewBox="0 0 48 48" fill="none" xmlns="http://www.w3.org/2000/svg">
<path d="M32.608 7C33.6432 7.62222 34.4997 8.50186 35.0942 9.5533C35.6886 10.6047 36.0006 11.7922 36 13C36.0006 14.2078 35.6886 15.3953 35.0942 16.4467C34.4997 17.4981 33.6432 18.3778 32.608 19M44 42V40.8C44 36.32 44 34.08 43.128 32.368C42.361 30.8628 41.1372 29.639 39.632 28.872M19 20C19.9193 20 20.8295 19.8189 21.6788 19.4672C22.5281 19.1154 23.2997 18.5998 23.9497 17.9497C24.5998 17.2997 25.1154 16.5281 25.4672 15.6788C25.8189 14.8295 26 13.9193 26 13C26 12.0807 25.8189 11.1705 25.4672 10.3212C25.1154 9.47194 24.5998 8.70026 23.9497 8.05025C23.2997 7.40024 22.5281 6.88463 21.6788 6.53284C20.8295 6.18106 19.9193 6 19 6C17.1435 6 15.363 6.7375 14.0503 8.05025C12.7375 9.36301 12 11.1435 12 13C12 14.8565 12.7375 16.637 14.0503 17.9497C15.363 19.2625 17.1435 20 19 20ZM4 40.8V42H34V40.8C34 36.32 34 34.08 33.128 32.368C32.361 30.8628 31.1372 29.639 29.632 28.872C27.92 28 25.68 28 21.2 28H16.8C12.32 28 10.08 28 8.368 28.872C6.86277 29.639 5.63898 30.8628 4.872 32.368C4 34.08 4 36.32 4 40.8Z" stroke="#F9F9F9" stroke-width="4" stroke-linecap="round" stroke-linejoin="round"/>
</svg>
