<svg width="15" height="15" viewBox="0 0 15 15" fill="none" xmlns="http://www.w3.org/2000/svg">
<path d="M12.7501 12.7501L10.0358 10.0358M10.0358 10.0358C10.5001 9.57145 10.8684 9.02024 11.1196 8.41359C11.3709 7.80695 11.5003 7.15675 11.5003 6.50013C11.5003 5.8435 11.3709 5.19331 11.1196 4.58666C10.8684 3.98002 10.5001 3.42881 10.0358 2.9645C9.57145 2.5002 9.02024 2.13189 8.41359 1.88061C7.80695 1.62933 7.15675 1.5 6.50013 1.5C5.8435 1.5 5.19331 1.62933 4.58666 1.88061C3.98002 2.13189 3.42881 2.5002 2.9645 2.9645C2.0268 3.90221 1.5 5.17401 1.5 6.50013C1.5 7.82625 2.0268 9.09805 2.9645 10.0358C3.90221 10.9735 5.17401 11.5003 6.50013 11.5003C7.82625 11.5003 9.09805 10.9735 10.0358 10.0358Z" stroke="#1C1C1C" stroke-width="1.5" stroke-linecap="round" stroke-linejoin="round"/>
</svg>
