<svg width="32" height="32" viewBox="0 0 32 32" fill="none" xmlns="http://www.w3.org/2000/svg">
<path opacity="0.4" d="M9.33337 18.5C10.7141 18.5 11.8334 17.3807 11.8334 16C11.8334 14.6193 10.7141 13.5 9.33337 13.5C7.95266 13.5 6.83337 14.6193 6.83337 16C6.83337 17.3807 7.95266 18.5 9.33337 18.5Z" fill="#676666"/>
<path opacity="0.4" d="M16 18.5C17.3807 18.5 18.5 17.3807 18.5 16C18.5 14.6193 17.3807 13.5 16 13.5C14.6193 13.5 13.5 14.6193 13.5 16C13.5 17.3807 14.6193 18.5 16 18.5Z" fill="#676666"/>
<path opacity="0.4" d="M22.6666 18.5C24.0473 18.5 25.1666 17.3807 25.1666 16C25.1666 14.6193 24.0473 13.5 22.6666 13.5C21.2859 13.5 20.1666 14.6193 20.1666 16C20.1666 17.3807 21.2859 18.5 22.6666 18.5Z" fill="#676666"/>
</svg>
