<svg width="28" height="28" viewBox="0 0 28 28" fill="none" xmlns="http://www.w3.org/2000/svg">
<path d="M11.6665 6C10.6056 6 9.58822 6.42143 8.83808 7.17157C8.08793 7.92172 7.6665 8.93913 7.6665 10C7.6665 11.0609 8.08793 12.0783 8.83808 12.8284C9.58822 13.5786 10.6056 14 11.6665 14C12.7274 14 13.7448 13.5786 14.4949 12.8284C15.2451 12.0783 15.6665 11.0609 15.6665 10C15.6665 8.93913 15.2451 7.92172 14.4949 7.17157C13.7448 6.42143 12.7274 6 11.6665 6ZM5.6665 10C5.6665 8.4087 6.29865 6.88258 7.42386 5.75736C8.54908 4.63214 10.0752 4 11.6665 4C13.2578 4 14.7839 4.63214 15.9091 5.75736C17.0344 6.88258 17.6665 8.4087 17.6665 10C17.6665 11.5913 17.0344 13.1174 15.9091 14.2426C14.7839 15.3679 13.2578 16 11.6665 16C10.0752 16 8.54908 15.3679 7.42386 14.2426C6.29865 13.1174 5.6665 11.5913 5.6665 10ZM18.4945 5.757C18.5874 5.66402 18.6977 5.59026 18.8191 5.53994C18.9405 5.48962 19.0706 5.46371 19.202 5.46371C19.3334 5.46371 19.4635 5.48962 19.5849 5.53994C19.7063 5.59026 19.8166 5.66402 19.9095 5.757C20.4668 6.31416 20.9088 6.97565 21.2104 7.70366C21.512 8.43168 21.6672 9.21198 21.6672 10C21.6672 10.788 21.512 11.5683 21.2104 12.2963C20.9088 13.0244 20.4668 13.6858 19.9095 14.243C19.8166 14.3359 19.7063 14.4096 19.5849 14.4599C19.4635 14.5102 19.3334 14.5361 19.202 14.5361C19.0706 14.5361 18.9405 14.5102 18.8191 14.4599C18.6977 14.4096 18.5874 14.3359 18.4945 14.243C18.4016 14.1501 18.3279 14.0398 18.2776 13.9184C18.2273 13.797 18.2014 13.6669 18.2014 13.5355C18.2014 13.4041 18.2273 13.274 18.2776 13.1526C18.3279 13.0312 18.4016 12.9209 18.4945 12.828C19.2444 12.0779 19.6656 11.0607 19.6656 10C19.6656 8.93934 19.2444 7.92211 18.4945 7.172C18.4015 7.07913 18.3278 6.96884 18.2774 6.84744C18.2271 6.72604 18.2012 6.59592 18.2012 6.4645C18.2012 6.33308 18.2271 6.20296 18.2774 6.08156C18.3278 5.96016 18.4015 5.84987 18.4945 5.757ZM19.1965 18.757C19.261 18.5 19.4248 18.279 19.6521 18.1427C19.8793 18.0064 20.1514 17.9659 20.4085 18.03C21.7365 18.362 22.5775 19.21 23.0605 20.178C23.5285 21.113 23.6665 22.158 23.6665 23C23.6665 23.2652 23.5611 23.5196 23.3736 23.7071C23.1861 23.8946 22.9317 24 22.6665 24C22.4013 24 22.1469 23.8946 21.9594 23.7071C21.7719 23.5196 21.6665 23.2652 21.6665 23C21.6665 22.343 21.5545 21.637 21.2725 21.072C21.0055 20.539 20.5955 20.138 19.9235 19.97C19.6665 19.9055 19.4455 19.7417 19.3092 19.5144C19.1729 19.2872 19.1324 19.0141 19.1965 18.757ZM8.1665 20C6.9065 20 5.6665 21.213 5.6665 23C5.6665 23.2652 5.56115 23.5196 5.37361 23.7071C5.18607 23.8946 4.93172 24 4.6665 24C4.40129 24 4.14693 23.8946 3.9594 23.7071C3.77186 23.5196 3.6665 23.2652 3.6665 23C3.6665 20.368 5.5595 18 8.1665 18H15.1665C17.7735 18 19.6665 20.368 19.6665 23C19.6665 23.2652 19.5611 23.5196 19.3736 23.7071C19.1861 23.8946 18.9317 24 18.6665 24C18.4013 24 18.1469 23.8946 17.9594 23.7071C17.7719 23.5196 17.6665 23.2652 17.6665 23C17.6665 21.213 16.4265 20 15.1665 20H8.1665Z" fill="#14593F"/>
</svg>
