<svg width="28" height="28" viewBox="0 0 28 28" fill="none" xmlns="http://www.w3.org/2000/svg">
<path d="M5.27273 24V13.5833L3.30909 15.1111L2 13.3333L14 4L26 13.3333L24.6909 15.0833L22.7273 13.5833V24H5.27273ZM7.45455 21.7778H20.5455V11.8889L14 6.80556L7.45455 11.8889V21.7778ZM9.63636 17.3333C9.32727 17.3333 9.06836 17.2267 8.85964 17.0133C8.65091 16.8 8.54618 16.5363 8.54545 16.2222C8.54545 15.9074 8.65018 15.6437 8.85964 15.4311C9.06909 15.2185 9.328 15.1119 9.63636 15.1111C9.94545 15.1111 10.2047 15.2178 10.4142 15.4311C10.6236 15.6444 10.728 15.9081 10.7273 16.2222C10.7273 16.537 10.6225 16.8011 10.4131 17.0144C10.2036 17.2278 9.94473 17.3341 9.63636 17.3333ZM14 17.3333C13.6909 17.3333 13.432 17.2267 13.2233 17.0133C13.0145 16.8 12.9098 16.5363 12.9091 16.2222C12.9091 15.9074 13.0138 15.6437 13.2233 15.4311C13.4327 15.2185 13.6916 15.1119 14 15.1111C14.3091 15.1111 14.5684 15.2178 14.7778 15.4311C14.9873 15.6444 15.0916 15.9081 15.0909 16.2222C15.0909 16.537 14.9862 16.8011 14.7767 17.0144C14.5673 17.2278 14.3084 17.3341 14 17.3333ZM18.3636 17.3333C18.0545 17.3333 17.7956 17.2267 17.5869 17.0133C17.3782 16.8 17.2735 16.5363 17.2727 16.2222C17.2727 15.9074 17.3775 15.6437 17.5869 15.4311C17.7964 15.2185 18.0553 15.1119 18.3636 15.1111C18.6727 15.1111 18.932 15.2178 19.1415 15.4311C19.3509 15.6444 19.4553 15.9081 19.4545 16.2222C19.4545 16.537 19.3498 16.8011 19.1404 17.0144C18.9309 17.2278 18.672 17.3341 18.3636 17.3333Z" fill="#668378"/>
</svg>
