<svg width="48" height="48" viewBox="0 0 48 48" fill="none" xmlns="http://www.w3.org/2000/svg">
<path d="M40.6875 19.8208L40.6875 19.8208L40.6922 19.8252C40.9469 20.0594 41.1502 20.3439 41.2892 20.6607L41.7105 20.4758L41.2892 20.6607C41.4283 20.9775 41.5001 21.3198 41.5 21.6658V21.6659V39.0002C41.5 39.6633 41.2366 40.2992 40.7678 40.768C40.2989 41.2368 39.663 41.5002 39 41.5002H30C29.337 41.5002 28.7011 41.2368 28.2322 40.768C27.7634 40.2992 27.5 39.6633 27.5 39.0002V30.0002V29.5002H27H21H20.5V30.0002V39.0002C20.5 39.6633 20.2366 40.2992 19.7678 40.768C19.2989 41.2368 18.663 41.5002 18 41.5002H9C8.33696 41.5002 7.70107 41.2368 7.23223 40.768C6.76339 40.2992 6.5 39.6633 6.5 39.0002V21.6659L6.5 21.6658C6.49995 21.3198 6.57172 20.9775 6.71077 20.6607C6.84982 20.3439 7.05312 20.0594 7.30781 19.8252L7.30784 19.8252L7.31271 19.8206L22.2958 5.66809L22.301 5.6632L22.3061 5.65816L22.3179 5.6463C22.777 5.23254 23.3733 5.00342 23.9916 5.00342C24.6072 5.00342 25.201 5.23058 25.6593 5.64097C25.67 5.65201 25.6811 5.6627 25.6925 5.67303L40.6875 19.8208ZM39 39.5002H39.4999L39.5 39.0003L39.5019 21.6622L39.5019 21.4409L39.3382 21.2921L39.3211 21.2766L24.3432 7.13665L23.9999 6.81255L23.6567 7.13672L8.68078 21.2803L8.66365 21.2959L8.5 21.4447V21.6659V39.0002V39.5002H9H18H18.5V39.0002V30.0002C18.5 29.3372 18.7634 28.7013 19.2322 28.2325C19.7011 27.7636 20.337 27.5002 21 27.5002H27C27.663 27.5002 28.2989 27.7636 28.7678 28.2325C29.2366 28.7013 29.5 29.3372 29.5 30.0002V39.0002V39.5002H30H39Z" fill="#CCD5D2" stroke="#F9F9F9"/>
</svg>
